<mxfile host="app.diagrams.net" agent="Mozilla/5.0 (X11; Linux x86_64) AppleWebKit/537.36 (KHTML, like Gecko) Chrome/132.0.0.0 Safari/537.36" version="26.0.7">
  <diagram name="Page-1" id="RJyMVNRQ2XhYD74tieJx">
    <mxGraphModel dx="2234" dy="792" grid="1" gridSize="10" guides="1" tooltips="1" connect="1" arrows="1" fold="1" page="0" pageScale="1" pageWidth="850" pageHeight="1100" math="0" shadow="0">
      <root>
        <mxCell id="0" />
        <mxCell id="1" parent="0" />
        <mxCell id="gCG3xXt29U2cwsMd5rho-32" value="" style="group" vertex="1" connectable="0" parent="1">
          <mxGeometry x="-600" y="150" width="620" height="320" as="geometry" />
        </mxCell>
        <mxCell id="gCG3xXt29U2cwsMd5rho-4" value="Envía&lt;br&gt;un mensaje" style="edgeStyle=none;curved=1;rounded=0;orthogonalLoop=1;jettySize=auto;html=1;exitX=1;exitY=0.5;exitDx=0;exitDy=0;fontSize=12;startSize=8;endSize=8;" edge="1" parent="gCG3xXt29U2cwsMd5rho-32" source="gCG3xXt29U2cwsMd5rho-1" target="gCG3xXt29U2cwsMd5rho-3">
          <mxGeometry relative="1" as="geometry" />
        </mxCell>
        <mxCell id="gCG3xXt29U2cwsMd5rho-1" value="Usuario" style="rounded=0;whiteSpace=wrap;html=1;" vertex="1" parent="gCG3xXt29U2cwsMd5rho-32">
          <mxGeometry x="30" width="120" height="60" as="geometry" />
        </mxCell>
        <mxCell id="gCG3xXt29U2cwsMd5rho-2" style="edgeStyle=none;curved=1;rounded=0;orthogonalLoop=1;jettySize=auto;html=1;exitX=1;exitY=0.5;exitDx=0;exitDy=0;fontSize=12;startSize=8;endSize=8;" edge="1" parent="gCG3xXt29U2cwsMd5rho-32" source="gCG3xXt29U2cwsMd5rho-1" target="gCG3xXt29U2cwsMd5rho-1">
          <mxGeometry relative="1" as="geometry" />
        </mxCell>
        <mxCell id="gCG3xXt29U2cwsMd5rho-9" value="&lt;span style=&quot;color: rgb(0, 0, 0); font-family: Helvetica; font-size: 12px; font-style: normal; font-variant-ligatures: normal; font-variant-caps: normal; font-weight: 400; letter-spacing: normal; orphans: 2; text-align: center; text-indent: 0px; text-transform: none; widows: 2; word-spacing: 0px; -webkit-text-stroke-width: 0px; white-space: nowrap; background-color: rgb(255, 255, 255); text-decoration-thickness: initial; text-decoration-style: initial; text-decoration-color: initial; display: inline !important; float: none;&quot;&gt;Transmite&lt;/span&gt;&lt;br style=&quot;forced-color-adjust: none; color: rgb(0, 0, 0); font-family: Helvetica; font-size: 12px; font-style: normal; font-variant-ligatures: normal; font-variant-caps: normal; font-weight: 400; letter-spacing: normal; orphans: 2; text-align: center; text-indent: 0px; text-transform: none; widows: 2; word-spacing: 0px; -webkit-text-stroke-width: 0px; white-space: nowrap; text-decoration-thickness: initial; text-decoration-style: initial; text-decoration-color: initial;&quot;&gt;&lt;span style=&quot;color: rgb(0, 0, 0); font-family: Helvetica; font-size: 12px; font-style: normal; font-variant-ligatures: normal; font-variant-caps: normal; font-weight: 400; letter-spacing: normal; orphans: 2; text-align: center; text-indent: 0px; text-transform: none; widows: 2; word-spacing: 0px; -webkit-text-stroke-width: 0px; white-space: nowrap; background-color: rgb(255, 255, 255); text-decoration-thickness: initial; text-decoration-style: initial; text-decoration-color: initial; display: inline !important; float: none;&quot;&gt;el mensaje&lt;/span&gt;" style="edgeStyle=none;curved=1;rounded=0;orthogonalLoop=1;jettySize=auto;html=1;exitX=1;exitY=0.5;exitDx=0;exitDy=0;entryX=0;entryY=0.5;entryDx=0;entryDy=0;fontSize=12;startSize=8;endSize=8;" edge="1" parent="gCG3xXt29U2cwsMd5rho-32" source="gCG3xXt29U2cwsMd5rho-3" target="gCG3xXt29U2cwsMd5rho-7">
          <mxGeometry relative="1" as="geometry" />
        </mxCell>
        <mxCell id="gCG3xXt29U2cwsMd5rho-3" value="Cuenta de WhatsApp de la empresa" style="rounded=0;whiteSpace=wrap;html=1;" vertex="1" parent="gCG3xXt29U2cwsMd5rho-32">
          <mxGeometry x="260" width="120" height="60" as="geometry" />
        </mxCell>
        <mxCell id="gCG3xXt29U2cwsMd5rho-13" style="edgeStyle=none;curved=1;rounded=0;orthogonalLoop=1;jettySize=auto;html=1;exitX=0.5;exitY=1;exitDx=0;exitDy=0;entryX=0.5;entryY=0;entryDx=0;entryDy=0;fontSize=12;startSize=8;endSize=8;" edge="1" parent="gCG3xXt29U2cwsMd5rho-32" source="gCG3xXt29U2cwsMd5rho-7" target="gCG3xXt29U2cwsMd5rho-12">
          <mxGeometry relative="1" as="geometry" />
        </mxCell>
        <mxCell id="gCG3xXt29U2cwsMd5rho-7" value="Servidor Glitch" style="rounded=0;whiteSpace=wrap;html=1;" vertex="1" parent="gCG3xXt29U2cwsMd5rho-32">
          <mxGeometry x="470" width="120" height="60" as="geometry" />
        </mxCell>
        <mxCell id="gCG3xXt29U2cwsMd5rho-12" value="Guarda el mensaje, ingresándolo a una cola, donde el mensaje será procesado por el Bot" style="text;html=1;align=center;verticalAlign=middle;whiteSpace=wrap;rounded=0;fontSize=12;" vertex="1" parent="gCG3xXt29U2cwsMd5rho-32">
          <mxGeometry x="440" y="100" width="180" height="50" as="geometry" />
        </mxCell>
        <mxCell id="gCG3xXt29U2cwsMd5rho-19" value="" style="group" vertex="1" connectable="0" parent="gCG3xXt29U2cwsMd5rho-32">
          <mxGeometry x="490" y="190" width="100" height="70" as="geometry" />
        </mxCell>
        <mxCell id="gCG3xXt29U2cwsMd5rho-16" value="Mensajes" style="rounded=0;whiteSpace=wrap;html=1;" vertex="1" parent="gCG3xXt29U2cwsMd5rho-19">
          <mxGeometry width="80" height="50" as="geometry" />
        </mxCell>
        <mxCell id="gCG3xXt29U2cwsMd5rho-17" value="Mensajes" style="rounded=0;whiteSpace=wrap;html=1;" vertex="1" parent="gCG3xXt29U2cwsMd5rho-19">
          <mxGeometry x="10" y="10" width="80" height="50" as="geometry" />
        </mxCell>
        <mxCell id="gCG3xXt29U2cwsMd5rho-18" value="Mensajes" style="rounded=0;whiteSpace=wrap;html=1;" vertex="1" parent="gCG3xXt29U2cwsMd5rho-19">
          <mxGeometry x="20" y="20" width="80" height="50" as="geometry" />
        </mxCell>
        <mxCell id="gCG3xXt29U2cwsMd5rho-20" style="edgeStyle=none;curved=1;rounded=0;orthogonalLoop=1;jettySize=auto;html=1;exitX=0.5;exitY=1;exitDx=0;exitDy=0;entryX=0.5;entryY=0;entryDx=0;entryDy=0;fontSize=12;startSize=8;endSize=8;" edge="1" parent="gCG3xXt29U2cwsMd5rho-32" source="gCG3xXt29U2cwsMd5rho-12" target="gCG3xXt29U2cwsMd5rho-16">
          <mxGeometry relative="1" as="geometry" />
        </mxCell>
        <mxCell id="gCG3xXt29U2cwsMd5rho-21" value="Bot&lt;br&gt;(escrito en Python)" style="rounded=0;whiteSpace=wrap;html=1;" vertex="1" parent="gCG3xXt29U2cwsMd5rho-32">
          <mxGeometry x="260" y="185" width="120" height="60" as="geometry" />
        </mxCell>
        <mxCell id="gCG3xXt29U2cwsMd5rho-22" value="Lee de&lt;br&gt;la cola" style="edgeStyle=none;curved=1;rounded=0;orthogonalLoop=1;jettySize=auto;html=1;exitX=0;exitY=0.5;exitDx=0;exitDy=0;entryX=1;entryY=0.5;entryDx=0;entryDy=0;fontSize=12;startSize=8;endSize=8;" edge="1" parent="gCG3xXt29U2cwsMd5rho-32" source="gCG3xXt29U2cwsMd5rho-16" target="gCG3xXt29U2cwsMd5rho-21">
          <mxGeometry relative="1" as="geometry">
            <mxPoint x="540" y="160" as="sourcePoint" />
            <mxPoint x="540" y="200" as="targetPoint" />
          </mxGeometry>
        </mxCell>
        <mxCell id="gCG3xXt29U2cwsMd5rho-27" value="El Bot responde&lt;div&gt;directamente al&lt;/div&gt;&lt;div&gt;Usuario&lt;/div&gt;" style="edgeStyle=none;curved=1;rounded=0;orthogonalLoop=1;jettySize=auto;html=1;exitX=0.5;exitY=0;exitDx=0;exitDy=0;entryX=0.5;entryY=1;entryDx=0;entryDy=0;fontSize=12;startSize=8;endSize=8;" edge="1" parent="gCG3xXt29U2cwsMd5rho-32" source="gCG3xXt29U2cwsMd5rho-24" target="gCG3xXt29U2cwsMd5rho-1">
          <mxGeometry relative="1" as="geometry" />
        </mxCell>
        <mxCell id="gCG3xXt29U2cwsMd5rho-24" value="Procesa el mensaje,&lt;br&gt;determinando una respuesta ideal" style="text;html=1;align=center;verticalAlign=middle;whiteSpace=wrap;rounded=0;fontSize=12;" vertex="1" parent="gCG3xXt29U2cwsMd5rho-32">
          <mxGeometry y="190" width="180" height="50" as="geometry" />
        </mxCell>
        <mxCell id="gCG3xXt29U2cwsMd5rho-25" style="edgeStyle=none;curved=1;rounded=0;orthogonalLoop=1;jettySize=auto;html=1;exitX=0;exitY=0.5;exitDx=0;exitDy=0;entryX=1;entryY=0.5;entryDx=0;entryDy=0;fontSize=12;startSize=8;endSize=8;" edge="1" parent="gCG3xXt29U2cwsMd5rho-32" source="gCG3xXt29U2cwsMd5rho-21" target="gCG3xXt29U2cwsMd5rho-24">
          <mxGeometry relative="1" as="geometry">
            <mxPoint x="540" y="70" as="sourcePoint" />
            <mxPoint x="540" y="110" as="targetPoint" />
          </mxGeometry>
        </mxCell>
        <mxCell id="gCG3xXt29U2cwsMd5rho-28" style="edgeStyle=none;curved=1;rounded=0;orthogonalLoop=1;jettySize=auto;html=1;fontSize=12;startSize=8;endSize=8;exitX=0.5;exitY=1;exitDx=0;exitDy=0;entryX=0.5;entryY=0;entryDx=0;entryDy=0;" edge="1" parent="gCG3xXt29U2cwsMd5rho-32" source="gCG3xXt29U2cwsMd5rho-21" target="gCG3xXt29U2cwsMd5rho-29">
          <mxGeometry relative="1" as="geometry">
            <mxPoint x="180" y="330" as="sourcePoint" />
            <mxPoint x="240" y="380" as="targetPoint" />
          </mxGeometry>
        </mxCell>
        <mxCell id="gCG3xXt29U2cwsMd5rho-29" value="Tiene acceso a recursos,&lt;div&gt;bases de datos, modelos&lt;/div&gt;&lt;div&gt;de IA, etc.&lt;/div&gt;" style="text;html=1;align=center;verticalAlign=middle;whiteSpace=wrap;rounded=0;fontSize=12;" vertex="1" parent="gCG3xXt29U2cwsMd5rho-32">
          <mxGeometry x="230" y="270" width="180" height="50" as="geometry" />
        </mxCell>
        <mxCell id="gCG3xXt29U2cwsMd5rho-31" value="Arquitectura para el procesamiento de mensajes" style="text;html=1;align=center;verticalAlign=middle;whiteSpace=wrap;rounded=0;fontSize=16;fontStyle=1" vertex="1" parent="1">
          <mxGeometry x="-600" y="100" width="620" height="30" as="geometry" />
        </mxCell>
      </root>
    </mxGraphModel>
  </diagram>
</mxfile>
